<svg xmlns="http://www.w3.org/2000/svg" viewBox="0 0 180 48" fill="none">
  <!-- Icon: content bbox is x:6-58, y:4-56 (52x52) in 64x64 space -->
  <!-- Scale 0.846 to fit 44x44, translate to center in 48px height with 2px padding -->
  <g transform="translate(-3.08, -1.38) scale(0.846)">
    <path d="M 32,8 L 48,14 L 54,30 L 48,46 L 32,52 L 16,46 L 10,30 L 16,14 Z"
      stroke="#0D7377" stroke-width="1.5" stroke-linejoin="round" opacity="0.3"/>
    <line x1="32" y1="8" x2="32" y2="19" stroke="#0D7377" stroke-width="2" opacity="0.5"/>
    <line x1="54" y1="30" x2="42" y2="30" stroke="#0D7377" stroke-width="2" opacity="0.5"/>
    <line x1="32" y1="52" x2="32" y2="41" stroke="#0D7377" stroke-width="2" opacity="0.5"/>
    <line x1="10" y1="30" x2="22" y2="30" stroke="#0D7377" stroke-width="2" opacity="0.5"/>
    <circle cx="32" cy="8" r="4" fill="#0D7377"/>
    <circle cx="48" cy="14" r="4" fill="#0D7377"/>
    <circle cx="54" cy="30" r="4" fill="#0D7377"/>
    <circle cx="48" cy="46" r="4" fill="#0D7377"/>
    <circle cx="32" cy="52" r="4" fill="#0D7377"/>
    <circle cx="16" cy="46" r="4" fill="#0D7377"/>
    <circle cx="10" cy="30" r="4" fill="#0D7377"/>
    <circle cx="16" cy="14" r="4" fill="#0D7377"/>
    <path d="M 30,21 Q 26,21 26,25 L 26,28 L 24,30 L 26,32 L 26,35 Q 26,39 30,39"
      stroke="#0D7377" stroke-width="3" stroke-linecap="round" stroke-linejoin="round"/>
    <path d="M 34,21 Q 38,21 38,25 L 38,28 L 40,30 L 38,32 L 38,35 Q 38,39 34,39"
      stroke="#0D7377" stroke-width="3" stroke-linecap="round" stroke-linejoin="round"/>
  </g>

  <!-- "octocode" — vertically centered with icon via dy trick -->
  <text x="52" y="24" dy="0.35em"
    font-family="'Fira Code', 'JetBrains Mono', 'Source Code Pro', 'Consolas', 'Monaco', monospace"
    font-size="24" font-weight="500" fill="#0D7377" letter-spacing="0.5">octocode</text>
</svg>
